Coordinates
version=1
nRows=19
nColumns=24
inDegrees=yes

Units are S.I. units (second, meters, Newtons, ...)
Angles are in degrees.

endheader
time	pelvis_tilt	pelvis_list	pelvis_rotation	pelvis_tx	pelvis_ty	pelvis_tz	hip_flexion_r	hip_adduction_r	hip_rotation_r	knee_angle_r	ankle_angle_r	subtalar_angle_r	mtp_angle_r	hip_flexion_l	hip_adduction_l	hip_rotation_l	knee_angle_l	ankle_angle_l	subtalar_angle_l	mtp_angle_l	lumbar_extension	lumbar_bending	lumbar_rotation
      1.14000000	     19.92743290	     -9.07270405	      5.86368380	      0.25165101	      0.97408906	      0.01815894	    -18.08223889	     14.33432216	    -11.30321158	     -3.04116769	      5.31149899	      6.95026981	      6.19826848	     -8.45566692	    -15.54509070	     -5.95638073	    -63.07871828	     -4.46117159	     -9.85788449	     38.17544625	    -26.19091445	      9.63192173	     -3.79789868
      1.14500000	     19.88389830	     -8.89572870	      5.87540127	      0.25665670	      0.97437780	      0.01834620	    -18.54883616	     14.21403976	    -11.16058036	     -2.73847796	      5.47708507	      6.98079347	      6.22169176	     -7.62055875	    -15.33761304	     -5.90999180	    -63.06832451	     -3.32747320	    -10.14453576	     38.18453378	    -26.23149158	      9.45106120	     -3.80173774
      1.15000000	     19.61557553	     -8.88400681	      5.93844780	      0.26164632	      0.97419874	      0.01858941	    -18.73808319	     14.27923600	    -10.97346891	     -2.44331233	      5.55081684	      6.73894520	      6.27161511	     -6.44532158	    -15.33250456	     -5.77980632	    -63.16384104	     -1.83165709	     -9.57069263	     37.33576945	    -26.00912615	      9.44277402	     -3.80559318
      1.15500000	     19.52239304	     -8.74713792	      6.01287126	      0.26665739	      0.97429661	      0.01873588	    -19.16137834	     14.22632562	    -10.82254950	     -2.08904471	      5.64769956	      6.57110071	      6.38741215	     -5.54295158	    -15.16526581	     -5.65772631	    -63.06653548	     -0.36099480	     -8.98527718	     35.95683508	    -25.98306233	      9.31889703	     -3.87754114
      1.16000000	     19.46020793	     -8.55879816	      6.01314809	      0.27169399	      0.97447729	      0.01889666	    -19.61522662	     14.08422766	    -10.65275528	     -1.78337119	      5.86509273	      6.59660247	      6.42009669	     -4.75517169	    -14.89967461	     -5.64768832	    -62.79440345	      0.67560578	     -9.20047414	     35.99072647	    -26.00040645	      9.12011196	     -3.90730182
      1.16500000	     19.29059947	     -8.49085301	      5.97353603	      0.27670363	      0.97440554	      0.01922698	    -19.94041390	     14.05928364	    -10.29674358	     -1.48100827	      6.00483634	      6.24279478	      6.56490499	     -3.84087653	    -14.79001469	     -5.67228175	    -62.54770440	      2.18371957	     -8.30376766	     34.62945617	    -25.90332379	      9.01464038	     -3.82656944
      1.17000000	     19.25064442	     -8.28887280	      6.01934670	      0.28179978	      0.97456621	      0.01929782	    -20.42912949	     13.92008450	    -10.23848484	     -1.14105461	      6.08898602	      6.24011157	      6.58610545	     -3.12586795	    -14.49284080	     -5.62311083	    -62.08880772	      3.27390728	     -8.15025438	     34.67236191	    -25.93013771	      8.82037261	     -3.89568695
      1.17500000	     19.20566736	     -8.19247228	      5.99537577	      0.28688241	      0.97460703	      0.01956733	    -20.92925113	     13.86832958	     -9.92729273	     -0.77402525	      6.20924815	      6.16003141	      6.63810492	     -2.42501442	    -14.35212798	     -5.69877941	    -61.61388671	      4.50709880	     -7.38935437	     34.48885685	    -25.96045899	      8.69795904	     -3.84099921
      1.18000000	     19.05381748	     -8.13175084	      5.92949756	      0.29186129	      0.97448589	      0.01986878	    -21.27117945	     13.82801227	     -9.52702055	     -0.47565132	      6.27141947	      5.82408961	      6.84085046	     -1.61356746	    -14.20789770	     -5.76255385	    -61.10712629	      5.90348388	     -6.46719118	     32.60734472	    -25.88874486	      8.59374937	     -3.70736838
      1.18500000	     19.08020058	     -7.92476749	      5.90640742	      0.29692578	      0.97465547	      0.02002412	    -21.82929718	     13.65590775	     -9.38130856	     -0.15935660	      6.41275674	      5.86599901	      6.88051634	     -1.08961662	    -13.88754967	     -5.81822194	    -60.36586206	      6.87088223	     -6.03554048	     32.65848417	    -26.00451133	      8.36502041	     -3.68130575
      1.19000000	     19.06019307	     -7.78753018	      5.83166704	      0.30199036	      0.97470960	      0.02027939	    -22.33354124	     13.53177124	     -9.09505769	      0.14846657	      6.54032162	      5.80224559	      6.92004779	     -0.53790668	    -13.65670767	     -5.95917578	    -59.57995912	      7.84427656	     -5.44064318	     32.60361621	    -26.07140197	      8.18577364	     -3.56700171
      1.19500000	     18.95592137	     -7.72909576	      5.72869386	      0.30703911	      0.97457766	      0.02064285	    -22.74414376	     13.47875234	     -8.66671542	      0.47061490	      6.54370013	      5.46598711	      7.09703525	      0.10719699	    -13.52211659	     -6.13954009	    -58.79043304	      8.99404589	     -4.50472087	     31.08832114	    -26.04720748	      8.06629220	     -3.41694413
      1.20000000	     18.99511638	     -7.53800672	      5.65527506	      0.31209505	      0.97468383	      0.02085250	    -23.28847990	     13.29558631	     -8.50493935	      0.72656618	      6.72367107	      5.54442789	      7.14998045	      0.51231638	    -13.20968174	     -6.28865541	    -57.78992702	      9.76078782	     -4.05014951	     31.10419271	    -26.18177052	      7.83326659	     -3.31834265
      1.20500000	     19.01767919	     -7.39606785	      5.53951018	      0.31718990	      0.97472099	      0.02115578	    -23.82578169	     13.14811427	     -8.24389550	      1.00399067	      6.82887058	      5.49263237	      7.19620454	      0.89965179	    -12.97292276	     -6.53568047	    -56.72741738	     10.52556971	     -3.49699316	     30.98405667	    -26.29630312	      7.63096759	     -3.17785630
      1.21000000	     19.02292511	     -7.23851434	      5.41679020	      0.32223690	      0.97473243	      0.02144886	    -24.32679561	     12.97662413	     -7.97297432	      1.25232186	      6.95663752	      5.42160971	      7.25010473	      1.27506370	    -12.69874057	     -6.76509139	    -55.57423366	     11.18588789	     -2.99498124	     30.79539898	    -26.39787815	      7.40907786	     -3.02626919
      1.21500000	     19.01014793	     -7.08978154	      5.29428185	      0.32726063	      0.97467512	      0.02174557	    -24.80574614	     12.81323738	     -7.66232782	      1.50844977	      7.02448356	      5.23066519	      7.47124759	      1.65109932	    -12.43043248	     -6.99365758	    -54.37054490	     11.92306939	     -2.30739624	     29.35037679	    -26.48227410	      7.19342711	     -2.87611773
      1.22000000	     19.03287688	     -6.92080227	      5.15674925	      0.33228510	      0.97466710	      0.02200498	    -25.27947057	     12.61530311	     -7.47427261	      1.66532378	      7.23267866	      5.27096790	      7.51803728	      1.93114249	    -12.13208952	     -7.25733330	    -53.03070475	     12.39251280	     -1.91661154	     29.39790140	    -26.60701865	      6.95758407	     -2.70440133
      1.22500000	     19.08913509	     -6.73072332	      5.00736148	      0.33737973	      0.97469498	      0.02229591	    -25.81320673	     12.39689800	     -7.27315669	      1.86453755	      7.38653117	      5.25761131	      7.55546917	      2.11628589	    -11.82049908	     -7.58269053	    -51.58106656	     12.79028957	     -1.59175555	     29.37630000	    -26.76183592	      6.69129830	     -2.54533033
      1.23000000	     19.15204999	     -6.53193566	      4.85054405	      0.34245169	      0.97471334	      0.02257037	    -26.33314976	     12.16219538	     -7.08307388	      2.02421255	      7.56104944	      5.24725619	      7.59714130	      2.25632940	    -11.49129108	     -7.92051215	    -50.04127693	     13.09818996	     -1.31327376	     29.32259532	    -26.92680723	      6.41434206	     -2.39159499
